<?xml version="1.0" standalone="no"?>
<svg xmlns:xlink="http://www.w3.org/1999/xlink" id="wave" style="transform:rotate(180deg); transition: 0.3s" viewBox="0 0 1440 110" version="1.1" xmlns="http://www.w3.org/2000/svg"><defs><linearGradient id="sw-gradient-0" x1="0" x2="0" y1="1" y2="0"><stop stop-color="rgba(255, 249, 234, 1)" offset="0%"/><stop stop-color="rgba(255, 249, 234, 1)" offset="100%"/></linearGradient></defs><path style="transform:translate(0, 0px); opacity:1" fill="url(#sw-gradient-0)" d="M0,88L48,73.3C96,59,192,29,288,22C384,15,480,29,576,38.5C672,48,768,51,864,47.7C960,44,1056,33,1152,25.7C1248,18,1344,15,1440,23.8C1536,33,1632,55,1728,55C1824,55,1920,33,2016,34.8C2112,37,2208,62,2304,67.8C2400,73,2496,59,2592,47.7C2688,37,2784,29,2880,22C2976,15,3072,7,3168,11C3264,15,3360,29,3456,36.7C3552,44,3648,44,3744,49.5C3840,55,3936,66,4032,69.7C4128,73,4224,70,4320,71.5C4416,73,4512,81,4608,86.2C4704,92,4800,95,4896,80.7C4992,66,5088,33,5184,31.2C5280,29,5376,59,5472,66C5568,73,5664,59,5760,53.2C5856,48,5952,51,6048,49.5C6144,48,6240,40,6336,31.2C6432,22,6528,11,6624,14.7C6720,18,6816,37,6864,45.8L6912,55L6912,110L6864,110C6816,110,6720,110,6624,110C6528,110,6432,110,6336,110C6240,110,6144,110,6048,110C5952,110,5856,110,5760,110C5664,110,5568,110,5472,110C5376,110,5280,110,5184,110C5088,110,4992,110,4896,110C4800,110,4704,110,4608,110C4512,110,4416,110,4320,110C4224,110,4128,110,4032,110C3936,110,3840,110,3744,110C3648,110,3552,110,3456,110C3360,110,3264,110,3168,110C3072,110,2976,110,2880,110C2784,110,2688,110,2592,110C2496,110,2400,110,2304,110C2208,110,2112,110,2016,110C1920,110,1824,110,1728,110C1632,110,1536,110,1440,110C1344,110,1248,110,1152,110C1056,110,960,110,864,110C768,110,672,110,576,110C480,110,384,110,288,110C192,110,96,110,48,110L0,110Z"/></svg>